<?xml version="1.0" encoding="utf-8"?>
<!-- Generator: Adobe Illustrator 21.0.0, SVG Export Plug-In . SVG Version: 6.00 Build 0)  -->
<svg version="1.1" id="Layer_1" xmlns="http://www.w3.org/2000/svg" xmlns:xlink="http://www.w3.org/1999/xlink" x="0px" y="0px"
	 viewBox="0 0 113.4 140.8" style="enable-background:new 0 0 113.4 140.8;" xml:space="preserve">
<style type="text/css">
	.st0{fill:url(#SVGID_1_);}
	.st1{fill:#FFFFFF;}
	.st2{fill:#FFFFFF;stroke:#FFFFFF;stroke-width:5.355000e-02;}
</style>
<g>
	<g>
		<linearGradient id="SVGID_1_" gradientUnits="userSpaceOnUse" x1="100.1387" y1="145.6577" x2="14.5334" y2="-2.615">
			<stop  offset="0" style="stop-color:#00417B"/>
			<stop  offset="1" style="stop-color:#009AC8"/>
		</linearGradient>
		<rect class="st0" width="113.4" height="140.8"/>
		<g>
			<path class="st1" d="M82.8,14.8c-10.3,0.3-21.2,6.1-25.5,8.5l-0.2,0.1l0.2,0.6c0.4-0.1,1.2-0.5,2.6-1.1c6.3-2.8,21-9.3,27.4-4.5
				c0.5,0.4,0.7,1.1,0.6,1.9c-0.4,3.4-6.2,9.7-21.3,17.1c-0.3,0.1-25.9,12.2-33.6,9.7c-1.4-0.5-2.3-1.2-2.4-2.2
				c-0.7-3.6,6.5-9.8,9.7-12.3c5.5-4.4,6.2-5.2,6.3-5.3l-0.4-0.5l-0.5,0.3l0,0C40.7,29.6,26,40.5,26.7,46.3c0,0.2,0,1.2,1.2,2.2
				c1.5,1.2,4.9,2.4,13,0.7c12.9-2.6,41.6-14.5,48.5-24.7c0,0,2.7-4.1,1.2-6.9C89.5,15.6,86.9,14.7,82.8,14.8z"/>
			<path class="st1" d="M97.9,22.7l0.1,0.6c0.6,0,2.2,0.2,3.1,1.4c0.7,0.8,0.9,2,0.7,3.5c-0.6,4.1-2,7.4-7.3,12.4l0.3,0.5
				c1.2-0.4,8.5-5.6,9.1-13.9c0-0.3,0.2-2.9-1.5-4.2C101.2,22.1,99.7,22,97.9,22.7z"/>
			<path class="st1" d="M31,56.8c1.8,6.6,6.2,11.2,12.5,12.8c8.4,2.2,19.9,0.7,23.9-0.5l-0.1-0.6l-1.8,0.1
				c-4.8,0.5-16.1,1.5-23.5-2.3c-6.3-3.4-8.4-6.9-9.6-8.7l-0.8-1.2L31,56.8z"/>
			<path class="st1" d="M89.4,79.9c-10.8,4.7-31,12.8-56.1,16l-0.2,0c-4.3,0.3-15.6,1.2-20.4-2.3c-0.8-0.6-1.2-1.3-1.3-2.2
				c-0.4-3.2,3.1-7.6,5-10l1.8-2.5l-1.1,0.5c-1,0.4-9.7,8.4-8.3,14.7c0.4,1.9,1.3,6.1,19.8,5.1c21.3-1.2,50.1-13.5,51.4-14
				c8.7-3.7,14.6-6.9,17-8.5l-0.2-0.6C95.5,76.6,93,78.4,89.4,79.9z"/>
		</g>
		<g>
			<path class="st2" d="M6.4,131c0-1.3,0-2.7,0-4.2c0-1.6,0-3,0-4.2c0-0.6,0-1.1-0.1-1.4c0-0.3,0-0.6-0.1-0.9l1.4,0l3.1,0
				c1.1,0,1.9,0.3,2.5,1c0.6,0.7,0.9,1.6,0.9,2.8c0,1.2-0.4,2.1-1.1,2.7c-0.8,0.6-1.8,1-3.1,1l-1,0h0c0,1.2,0,2.3,0,3.3
				c0,0.6,0,1.1,0.1,1.4c0,0.3,0,0.6,0.1,0.9c-0.4,0-0.9,0-1.4,0c-0.5,0-1,0-1.4,0c0-0.3,0.1-0.6,0.1-0.9
				C6.4,132.2,6.4,131.7,6.4,131z M8.9,126.5l0.5,0c0.6,0,1.1-0.2,1.5-0.7c0.3-0.5,0.5-1.2,0.5-2c0-0.7-0.1-1.3-0.4-1.7
				c-0.3-0.4-0.7-0.6-1.2-0.6l-0.7,0C9,122.9,8.9,124.6,8.9,126.5z"/>
			<path class="st2" d="M19.2,131c0.5-1.2,1-2.6,1.6-4.2c1-2.6,1.8-4.8,2.3-6.6c0.3,0,0.5,0,0.7,0c0.2,0,0.4,0,0.7,0
				c0.6,1.8,1.3,4,2.3,6.6c0.6,1.6,1.1,3,1.6,4.2c0.3,0.7,0.5,1.3,0.6,1.6c0.1,0.3,0.2,0.6,0.3,0.8c-0.4,0-1,0-1.5,0
				c-0.6,0-1.1,0-1.5,0c-0.2-0.7-0.3-1.2-0.4-1.5c-0.1-0.3-0.2-0.6-0.3-0.8l-0.5-1.4c-0.7-0.1-1.4-0.1-2.2-0.1c-0.7,0-1.3,0-1.8,0.2
				c-0.2,0.5-0.3,0.9-0.5,1.4c-0.1,0.2-0.1,0.4-0.2,0.7c-0.1,0.3-0.2,0.9-0.4,1.6c-0.3,0-0.6,0-0.9,0c-0.3,0-0.6,0-0.9,0
				c0.1-0.2,0.2-0.5,0.4-0.8C18.7,132.3,18.9,131.8,19.2,131z M22.1,126.8l-0.5,1.4c0.5,0.1,0.9,0.1,1.5,0.1c0.6,0,1.1,0,1.6-0.1
				l0-0.1c-0.5-1.5-1-2.9-1.5-4.2h0C22.8,124.8,22.5,125.7,22.1,126.8z"/>
			<path class="st2" d="M34.4,131c0-1.3,0-2.7,0-4.2c0-1.6,0-3,0-4.2c0-0.6,0-1.1-0.1-1.4c0-0.3,0-0.6-0.1-0.9l0.9,0h0.5h1.1l2,0
				c1.1,0,1.9,0.3,2.6,0.9c0.6,0.6,0.9,1.4,0.9,2.5c0,1.1-0.4,1.9-1.1,2.5c-0.4,0.3-1,0.6-1.6,0.7c0.4,0.9,1,1.9,1.6,3.1l0.6,1.1
				c0.4,0.7,0.7,1.2,0.9,1.5c0.2,0.3,0.4,0.6,0.6,0.8c-0.5,0-1,0-1.6,0c-0.6,0-1.1,0-1.5,0c-0.3-0.8-0.8-1.7-1.4-2.8
				c-0.7-1.3-1.3-2.5-1.8-3.4h0c0,1.4,0,2.7,0,3.9c0,0.6,0,1.1,0.1,1.4c0,0.3,0,0.6,0.1,0.9c-0.4,0-0.9,0-1.4,0c-0.5,0-1,0-1.4,0
				c0-0.3,0-0.6,0.1-0.9C34.3,132.2,34.4,131.7,34.4,131z M36.9,126.4l0.5,0c0.6,0,1.1-0.3,1.5-0.8c0.4-0.5,0.6-1.2,0.6-2
				c0-0.7-0.2-1.3-0.5-1.7c-0.3-0.4-0.8-0.6-1.4-0.6c-0.3,0-0.5,0-0.8,0.1V126.4z"/>
			<path class="st2" d="M47.9,131c0.5-1.2,1-2.6,1.6-4.2c1-2.6,1.8-4.8,2.3-6.6c0.3,0,0.5,0,0.7,0c0.2,0,0.4,0,0.7,0
				c0.6,1.8,1.3,4,2.3,6.6c0.6,1.6,1.1,3,1.6,4.2c0.3,0.7,0.5,1.3,0.6,1.6c0.1,0.3,0.2,0.6,0.3,0.8c-0.4,0-1,0-1.5,0
				c-0.6,0-1.1,0-1.5,0c-0.2-0.7-0.3-1.2-0.4-1.5c-0.1-0.3-0.2-0.6-0.3-0.8l-0.5-1.4c-0.7-0.1-1.4-0.1-2.2-0.1c-0.7,0-1.3,0-1.8,0.2
				c-0.2,0.5-0.3,0.9-0.5,1.4c-0.1,0.2-0.1,0.4-0.2,0.7c-0.1,0.3-0.2,0.9-0.4,1.6c-0.3,0-0.6,0-0.9,0c-0.3,0-0.6,0-0.9,0
				c0.1-0.2,0.2-0.5,0.4-0.8C47.4,132.3,47.6,131.8,47.9,131z M50.8,126.8l-0.5,1.4c0.5,0.1,1,0.1,1.5,0.1c0.6,0,1.1,0,1.6-0.1
				l0-0.1c-0.5-1.5-1-2.9-1.5-4.2h0C51.5,124.8,51.2,125.7,50.8,126.8z"/>
			<path class="st2" d="M69,133.6c-2,0-3.6-0.6-4.9-1.8c-1.2-1.2-1.8-2.7-1.8-4.7c0-2.1,0.6-3.9,1.8-5.2c1.2-1.3,2.9-2,4.9-2
				c0.7,0,1.5,0.1,2.2,0.3c0.8,0.2,1.5,0.4,2,0.8c-0.1,0.4-0.2,0.8-0.3,1.1c-0.1,0.3-0.1,0.7-0.2,1.1l-0.2,0
				c-0.4-0.7-0.9-1.2-1.5-1.5c-0.6-0.3-1.2-0.5-1.9-0.5c-1.3,0-2.3,0.5-3.1,1.6c-0.8,1.1-1.1,2.5-1.1,4.3c0,1.6,0.4,2.9,1.1,3.8
				c0.7,0.9,1.8,1.4,3,1.4c0.6,0,1.1-0.1,1.6-0.2c0.1-0.7,0.2-1.4,0.2-2.3c0-0.9-0.1-1.7-0.2-2.4c0.4,0,0.9,0,1.4,0c0.5,0,1,0,1.4,0
				c0,0.2-0.1,0.5-0.1,0.8c0,0.3,0,0.8,0,1.5v0.5c0,0.8,0,1.4,0,1.7c0,0.3,0.1,0.6,0.1,0.8C72.3,133.4,70.8,133.6,69,133.6z"/>
			<path class="st2" d="M80.8,131.8c-1.2-1.2-1.8-2.7-1.8-4.7c0-2.1,0.6-3.9,1.8-5.2c1.2-1.3,2.7-1.9,4.6-1.9c1.9,0,3.5,0.6,4.6,1.8
				c1.2,1.2,1.8,2.7,1.8,4.7c0,2.1-0.6,3.8-1.8,5.1c-1.2,1.3-2.7,1.9-4.6,1.9C83.5,133.6,81.9,133,80.8,131.8z M88.1,130.8
				c0.7-1.1,1-2.5,1-4.3c0-1.6-0.3-2.9-1-3.8c-0.7-0.9-1.5-1.4-2.7-1.4c-1.1,0-2,0.5-2.7,1.6c-0.7,1.1-1,2.5-1,4.3
				c0,1.6,0.3,2.9,1,3.8c0.7,0.9,1.5,1.4,2.7,1.4C86.5,132.4,87.4,131.9,88.1,130.8z"/>
			<path class="st2" d="M98.8,131c0,0.6,0,1.1,0.1,1.4c0,0.3,0,0.6,0.1,0.9c-0.2,0-0.5,0-0.8,0c-0.3,0-0.5,0-0.8,0
				c0-0.3,0.1-0.6,0.1-0.9c0-0.3,0-0.8,0-1.4c0-1.3,0-2.7,0-4.2c0-1.5,0-2.9,0-4.2c0-0.6,0-1.1,0-1.4c0-0.3,0-0.6-0.1-0.9
				c0.2,0,0.5,0,0.8,0c0.3,0,0.6,0,0.8,0c1.1,1.5,2.5,3.3,4.2,5.4l3.1,3.6l0-2.4c0-1.6,0-3,0-4.2c0-0.6,0-1.1-0.1-1.4
				c0-0.3,0-0.6-0.1-0.9c0.2,0,0.5,0,0.8,0c0.3,0,0.5,0,0.8,0c0,0.3-0.1,0.6-0.1,0.9c0,0.3,0,0.8-0.1,1.4c0,1.3,0,2.7,0,4.2
				c0,2.6,0,4.8,0.1,6.5c-0.3,0-0.5-0.1-0.8-0.1c-0.2,0-0.5,0-0.8,0.1c-1.3-1.8-3.1-4.1-5.3-6.7l-2-2.4l0,2.5
				C98.8,128.4,98.8,129.8,98.8,131z"/>
		</g>
	</g>
</g>
</svg>
